# xmcd
#
# Track frame offsets: 
#        183
#        32193
#        50423
#        63603
#        103088
#        116548
#        129098
#        141280
#        199908
#
# Disc length: 2963 seconds
#
# Revision: 15
# Processed by: cddbd v1.5.2PL0 Copyright (c) Steve Scherf et al.
# Submitted via: ExactAudioCopy v0.95b4
#
DISCID=830b9109
DTITLE=Duane Allman - An Anthology [CD 1)
DYEAR=1972
DGENRE=Blues
TTITLE0=Hourglass - B.B. King Medley
TTITLE1=Wilson Pickett - Hey Jude
TTITLE2=Clarence Carter - The Road Of Love
TTITLE3=Duane Allman  Goin' Down Slow
TTITLE4=Aretha Franklin  The Weight
TTITLE5=King Curtis - Games People Play
TTITLE6=John Hammond - Shake For Me
TTITLE7=Boz Scaggs - Loan Me A Dime
TTITLE8=Johnny Jenkins - Rollin' Stone
EXTD=YEAR: 1972
EXTT0=
EXTT1=
EXTT2=
EXTT3=
EXTT4=
EXTT5=
EXTT6=
EXTT7=
EXTT8=
PLAYORDER=
